<?xml version="1.0" standalone="no"?><!DOCTYPE svg PUBLIC "-//W3C//DTD SVG 1.1//EN" "http://www.w3.org/Graphics/SVG/1.1/DTD/svg11.dtd"><svg height="130" node-id="1" sillyvg="true" template-height="130" template-width="178" version="1.1" viewBox="0 0 178 130" width="178" xmlns="http://www.w3.org/2000/svg" xmlns:xlink="http://www.w3.org/1999/xlink"><defs node-id="60"><linearGradient gradientUnits="objectBoundingBox" id="linear-gradient" node-id="5" spreadMethod="pad" x1="0.5" x2="0.5" y1="0" y2="1"><stop offset="0" stop-color="#e9e9e9"></stop><stop offset="1" stop-color="#ffffff" stop-opacity="0"></stop></linearGradient><linearGradient gradientUnits="objectBoundingBox" id="linear-gradient-2" node-id="8" spreadMethod="pad" x1="0.5" x2="0.5" y1="0" y2="1"><stop offset="0" stop-color="#dcdcdc"></stop><stop offset="1" stop-color="#ffffff" stop-opacity="0"></stop></linearGradient><linearGradient gradientUnits="objectBoundingBox" id="linear-gradient-3" node-id="11" spreadMethod="pad" x1="0.5" x2="0.5" y1="0" y2="1"><stop offset="0" stop-color="#f1f1f1"></stop><stop offset="1" stop-color="#ffffff" stop-opacity="0"></stop></linearGradient><linearGradient gradientUnits="objectBoundingBox" id="linear-gradient-5" node-id="14" spreadMethod="pad" x1="0.5" x2="0.5" y1="0" y2="1"><stop offset="0" stop-color="#dedede"></stop><stop offset="1" stop-color="#ffffff" stop-opacity="0"></stop></linearGradient><linearGradient gradientUnits="objectBoundingBox" id="linear-gradient-7" node-id="17" spreadMethod="pad" x1="0.5" x2="0.5" y1="0" y2="1"><stop offset="0" stop-color="#e8e8e8"></stop><stop offset="1" stop-color="#ffffff" stop-opacity="0"></stop></linearGradient><linearGradient gradientUnits="objectBoundingBox" id="linear-gradient-9" node-id="20" spreadMethod="pad" x1="0.213" x2="0.846" y1="1.265" y2="0"><stop offset="0" stop-color="#ffffff"></stop><stop offset="1" stop-color="#f5f5f5"></stop></linearGradient><linearGradient gradientUnits="objectBoundingBox" id="linear-gradient-10" node-id="23" spreadMethod="pad" x1="0.5" x2="0.5" y1="0" y2="1"><stop offset="0" stop-color="#c5c5c5"></stop><stop offset="1" stop-color="#ffffff" stop-opacity="0"></stop></linearGradient><linearGradient gradientUnits="objectBoundingBox" id="linear-gradient-11" node-id="26" spreadMethod="pad" x1="0.5" x2="0.5" y1="0" y2="1"><stop offset="0" stop-color="#acacac"></stop><stop offset="1" stop-color="#f2f2f2" stop-opacity="0.388"></stop></linearGradient><clipPath id="clip-path" node-id="3"><path d="M -744.00 -1111.00 L -566.00 -1111.00 L -566.00 -981.00 L -744.00 -981.00 Z" fill="#000000" fill-rule="nonzero" id="矩形_639" node-id="4" stroke="none" target-height="130" target-width="178" target-x="-744" target-y="-1111"></path></clipPath></defs><g node-id="109"><g clip-path="url(#clip-path)" group-id="1" id="组_407" node-id="30"><path d="M 28.47 21.94 L 65.07 11.14 L 65.07 104.92 L 28.47 115.72 Z" fill="url(#linear-gradient)" fill-rule="nonzero" group-id="1,2,4,12" id="路径_82" node-id="33" stroke="none" target-height="104.574" target-width="36.6" target-x="28.466013" target-y="11.142"></path><path d="M 28.47 21.94 L 10.60 10.82 L 10.60 104.60 L 28.47 115.72 Z" fill="url(#linear-gradient-2)" fill-rule="nonzero" group-id="1,2,4,13" id="路径_81" node-id="34" stroke="none" target-height="104.891" target-width="17.869" target-x="10.597015" target-y="10.824"></path><path d="M 28.46 21.99 L 65.07 11.14 L 47.19 0.00 L 10.59 10.85 Z" fill="url(#linear-gradient-3)" fill-rule="nonzero" group-id="1,2,4,14" id="路径_80" node-id="35" stroke="none" target-height="21.987" target-width="54.478004" target-x="10.591013" target-y="0.0009994507"></path><path d="M 126.16 23.16 L 161.90 12.62 L 161.90 104.18 L 126.16 114.72 Z" fill="url(#linear-gradient-3)" fill-rule="nonzero" group-id="1,2,5,15" id="路径_78" node-id="37" stroke="none" target-height="102.1" target-width="35.740997" target-x="126.15799" target-y="12.617061"></path><path d="M 126.16 23.16 L 108.71 12.31 L 108.71 103.87 L 126.16 114.72 Z" fill="url(#linear-gradient-5)" fill-rule="nonzero" group-id="1,2,5,16" id="路径_79" node-id="38" stroke="none" target-height="102.41" target-width="17.447998" target-x="108.709984" target-y="12.306061"></path><path d="M 126.16 23.21 L 161.90 12.62 L 144.44 1.74 L 108.70 12.33 Z" fill="url(#linear-gradient-3)" fill-rule="nonzero" group-id="1,2,5,17" id="路径_77" node-id="39" stroke="none" target-height="21.469" target-width="53.197998" target-x="108.70099" target-y="1.73806"></path><path d="M 55.68 49.72 L 86.52 40.58 L 86.52 119.96 L 55.68 129.10 Z" fill="url(#linear-gradient-7)" fill-rule="nonzero" group-id="1,2,6,18" id="路径_74" node-id="41" stroke="none" target-height="88.519005" target-width="30.839" target-x="55.67803" target-y="40.579018"></path><path d="M 55.68 49.72 L 40.63 40.32 L 40.63 119.69 L 55.68 129.09 Z" fill="url(#linear-gradient-2)" fill-rule="nonzero" group-id="1,2,6,19" id="路径_75" node-id="42" stroke="none" target-height="88.777" target-width="15.054001" target-x="40.62503" target-y="40.316017"></path><path d="M 55.68 49.72 L 86.52 40.58 L 71.46 31.19 L 40.62 40.33 Z" fill="url(#linear-gradient-9)" fill-rule="nonzero" group-id="1,2,6,20" id="路径_76" node-id="43" stroke="none" target-height="18.524002" target-width="45.901" target-x="40.616028" target-y="31.193016"></path><path d="M 178.00 129.55 L 0.00 129.55 L 1.06 125.74 L 2.40 122.05 L 4.02 118.47 L 5.90 115.02 L 8.05 111.74 L 10.45 108.60 L 14.84 103.74 L 19.59 99.33 L 24.70 95.35 L 30.20 91.79 L 36.63 88.27 L 43.25 85.24 L 50.06 82.69 L 57.09 80.61 L 65.01 78.83 L 72.96 77.56 L 80.95 76.80 L 89.00 76.55 L 97.05 76.80 L 105.04 77.56 L 112.99 78.83 L 120.91 80.61 L 127.94 82.69 L 134.75 85.24 L 141.37 88.27 L 147.81 91.79 L 153.30 95.35 L 158.41 99.33 L 163.16 103.74 L 167.55 108.60 L 169.95 111.74 L 172.10 115.02 L 173.98 118.47 L 175.60 122.05 L 176.94 125.74 L 178.00 129.55 Z" fill="url(#linear-gradient-10)" fill-rule="nonzero" group-id="1,2,7" id="减去_26" node-id="44" stroke="none" target-height="52.999596" target-width="178" target-x="0" target-y="76.549355"></path><path d="M 70.53 88.59 L 69.26 89.80 L 71.56 89.80 L 72.76 88.59 Z" fill="#cbcbcb" fill-rule="nonzero" group-id="1,2,8,21" id="路径_282" node-id="46" stroke="none" target-height="1.2119141" target-width="3.5" target-x="69.25702" target-y="88.58606"></path><path d="M 72.72 83.91 L 71.45 85.12 L 73.75 85.12 L 75.02 83.91 Z" fill="#cbcbcb" fill-rule="nonzero" group-id="1,2,8,22" id="路径_283" node-id="47" stroke="none" target-height="1.2119141" target-width="3.5629883" target-x="71.453" target-y="83.90906"></path><path d="M 119.28 88.58 L 118.01 89.80 L 120.31 89.80 L 121.51 88.58 Z" fill="#cbcbcb" fill-rule="nonzero" group-id="1,2,8,23" id="路径_278" node-id="48" stroke="none" target-height="1.2120361" target-width="3.5" target-x="118.012024" target-y="88.58496"></path><path d="M 121.52 83.90 L 120.25 85.11 L 122.55 85.11 L 123.81 83.90 Z" fill="#cbcbcb" fill-rule="nonzero" group-id="1,2,8,24" id="路径_277" node-id="49" stroke="none" target-height="1.2120361" target-width="3.5629883" target-x="120.24701" target-y="83.900024"></path><path d="M 55.53 80.21 L 65.71 58.24 L 70.09 58.24 L 60.16 79.96 L 75.04 79.96 L 75.04 83.90 L 55.53 83.90 Z M 68.61 70.72 L 72.76 70.72 L 72.76 88.58 L 68.61 88.58 Z M 89.34 88.87 L 86.59 88.58 L 84.49 87.81 L 82.88 86.59 L 81.86 85.19 L 81.15 83.64 L 80.75 81.98 L 80.68 80.25 L 80.68 66.46 L 80.75 64.73 L 81.15 63.06 L 81.86 61.51 L 82.89 60.11 L 84.50 58.90 L 86.60 58.12 L 89.34 57.84 L 92.09 58.12 L 94.19 58.89 L 95.79 60.10 L 96.82 61.50 L 97.53 63.06 L 97.93 64.72 L 97.99 66.46 L 97.99 80.25 L 97.93 81.98 L 97.53 83.65 L 96.81 85.20 L 95.78 86.60 L 94.17 87.81 L 92.07 88.59 L 89.34 88.87 Z M 89.34 84.82 L 90.57 84.74 L 91.66 84.36 L 92.66 83.64 L 93.31 82.60 L 93.66 81.48 L 93.74 80.25 L 93.74 66.46 L 93.67 65.24 L 93.31 64.12 L 92.67 63.07 L 91.67 62.35 L 90.57 61.96 L 89.34 61.89 L 88.10 61.96 L 87.00 62.35 L 86.00 63.07 L 85.36 64.12 L 85.01 65.24 L 84.93 66.46 L 84.93 80.25 L 85.01 81.48 L 85.36 82.60 L 86.01 83.64 L 87.01 84.36 L 88.11 84.74 L 89.34 84.82 Z M 104.26 80.21 L 114.45 58.24 L 118.83 58.24 L 108.90 79.96 L 123.77 79.96 L 123.77 83.90 L 104.26 83.90 Z M 117.35 70.72 L 121.50 70.72 L 121.50 88.58 L 117.35 88.58 Z" fill="#c6c6c6" fill-rule="nonzero" group-id="1,2,8,25" id="路径_266" node-id="50" stroke="none" target-height="31.024994" target-width="68.244" target-x="55.527008" target-y="57.843002"></path><path d="M 54.31 81.43 L 64.49 59.46 L 68.87 59.46 L 58.94 81.18 L 73.81 81.18 L 73.81 85.12 L 54.31 85.12 Z M 67.39 71.94 L 71.54 71.94 L 71.54 89.80 L 67.39 89.80 Z M 88.11 90.09 L 85.37 89.81 L 83.27 89.03 L 81.66 87.81 L 80.64 86.41 L 79.92 84.86 L 79.53 83.20 L 79.46 81.47 L 79.46 67.68 L 79.52 65.95 L 79.92 64.28 L 80.64 62.73 L 81.67 61.33 L 83.28 60.12 L 85.38 59.35 L 88.11 59.06 L 90.86 59.34 L 92.97 60.11 L 94.57 61.32 L 95.59 62.72 L 96.31 64.28 L 96.71 65.94 L 96.77 67.68 L 96.77 81.47 L 96.71 83.21 L 96.30 84.87 L 95.59 86.42 L 94.56 87.82 L 92.95 89.03 L 90.85 89.81 L 88.11 90.09 Z M 88.11 86.04 L 89.34 85.97 L 90.44 85.58 L 91.44 84.86 L 92.09 83.82 L 92.44 82.70 L 92.52 81.47 L 92.52 67.68 L 92.44 66.46 L 92.09 65.34 L 91.45 64.29 L 90.45 63.57 L 89.35 63.19 L 88.11 63.11 L 86.88 63.19 L 85.78 63.57 L 84.78 64.29 L 84.14 65.34 L 83.79 66.46 L 83.71 67.68 L 83.71 81.47 L 83.79 82.70 L 84.14 83.82 L 84.79 84.86 L 85.79 85.58 L 86.89 85.97 L 88.11 86.04 Z M 103.04 81.43 L 113.22 59.46 L 117.60 59.46 L 107.67 81.18 L 122.55 81.18 L 122.55 85.12 L 103.04 85.12 Z M 116.12 71.94 L 120.28 71.94 L 120.28 89.80 L 116.12 89.80 Z" fill="#b2b2b2" fill-rule="nonzero" group-id="1,2,8,26" id="路径_265" node-id="51" stroke="none" target-height="31.024994" target-width="68.244" target-x="54.306" target-y="59.06395"></path><path d="M 54.31 95.81 L 64.49 110.33 L 68.87 110.33 L 58.94 95.97 L 73.81 95.97 L 73.81 93.37 L 54.31 93.37 Z M 67.39 102.08 L 71.54 102.08 L 71.54 90.28 L 67.39 90.28 Z M 88.11 90.09 L 85.30 90.29 L 83.20 90.81 L 81.66 91.59 L 80.70 92.40 L 80.01 93.39 L 79.58 94.54 L 79.46 95.78 L 79.46 104.89 L 79.58 106.14 L 80.01 107.29 L 80.71 108.29 L 81.67 109.09 L 83.73 110.02 L 85.86 110.51 L 88.12 110.59 L 90.93 110.40 L 93.03 109.88 L 94.57 109.10 L 95.53 108.30 L 96.23 107.30 L 96.65 106.15 L 96.77 104.90 L 96.77 95.79 L 96.65 94.54 L 96.23 93.40 L 95.52 92.40 L 94.56 91.59 L 92.50 90.67 L 90.37 90.17 L 88.11 90.09 Z M 88.11 92.76 L 89.84 92.90 L 91.44 93.54 L 92.26 94.53 L 92.52 95.78 L 92.52 104.90 L 92.27 106.15 L 91.45 107.14 L 89.84 107.78 L 88.11 107.91 L 86.39 107.78 L 84.78 107.14 L 83.96 106.15 L 83.71 104.90 L 83.71 95.78 L 83.97 94.53 L 84.79 93.55 L 86.39 92.90 L 88.11 92.76 Z M 103.04 95.81 L 113.22 110.33 L 117.60 110.33 L 107.67 95.98 L 122.55 95.98 L 122.55 93.37 L 103.04 93.37 Z M 116.12 102.08 L 120.28 102.08 L 120.28 90.28 L 116.12 90.28 Z" fill="url(#linear-gradient-11)" fill-opacity="0.32" fill-rule="nonzero" group-id="1,2,8,27" id="路径_264" node-id="52" stroke="none" target-height="20.503998" target-width="68.244" target-x="54.306" target-y="90.089"></path><path d="M 114.43 58.23 L 113.23 59.49 L 117.62 59.49 L 118.79 58.23 Z" fill="#e6e6e6" fill-rule="nonzero" group-id="1,3" id="路径_273" node-id="54" stroke="none" target-height="1.2590332" target-width="5.565979" target-x="113.22803" target-y="58.22998"></path><path d="M 58.94 81.19 L 60.23 79.81 L 67.38 79.81 L 67.38 81.19 Z M 67.36 71.94 L 68.63 70.70 L 72.78 70.70 L 71.55 71.94 Z M 64.50 59.47 L 65.70 58.21 L 70.07 58.21 L 68.89 59.47 Z" fill="#e6e6e6" fill-rule="nonzero" group-id="1,3,9" id="联合_56" node-id="55" stroke="none" target-height="22.978" target-width="13.838001" target-x="58.94402" target-y="58.20898"></path><path d="M 117.36 70.68 L 116.09 71.98 L 120.28 71.98 L 121.52 70.68 Z" fill="#e6e6e6" fill-rule="nonzero" group-id="1,3,10" id="路径_275" node-id="56" stroke="none" target-height="1.3000488" target-width="5.424011" target-x="116.09198" target-y="70.67798"></path><path d="M 121.52 79.90 L 120.25 81.20 L 122.55 81.20 L 123.71 79.90 Z" fill="#e6e6e6" fill-rule="nonzero" group-id="1,3,11" id="路径_276" node-id="57" stroke="none" target-height="1.2999268" target-width="3.461975" target-x="120.24902" target-y="79.900024"></path><path d="M 108.84 79.79 L 107.63 81.30 L 116.08 81.30 L 116.08 79.79 Z" fill="#e6e6e6" fill-rule="nonzero" group-id="1,3" id="路径_274" node-id="58" stroke="none" target-height="1.5079346" target-width="8.4470215" target-x="107.63098" target-y="79.791016"></path></g></g></svg>