<?xml version="1.0" standalone="no"?><!DOCTYPE svg PUBLIC "-//W3C//DTD SVG 1.1//EN" "http://www.w3.org/Graphics/SVG/1.1/DTD/svg11.dtd"><svg t="1714746996878" class="icon" viewBox="0 0 1024 1024" version="1.1" xmlns="http://www.w3.org/2000/svg" p-id="1697" xmlns:xlink="http://www.w3.org/1999/xlink" width="200" height="200"><path d="M837.908843 1004.852357v19.147643H186.091157V0h19.147643v1004.852357z" fill="#F2F2F2" p-id="1698"></path><path d="M837.908843 985.704714v19.147643H205.2388V0h19.147643v985.704714z" fill="" p-id="1699"></path><path d="M837.908843 966.557071v19.147643H224.386443V0h19.147643v966.557071z" fill="#F2F2F2" p-id="1700"></path><path d="M837.908843 947.409427v19.147644h-594.374757V0h19.147644v947.409427z" fill="" p-id="1701"></path><path d="M837.908843 928.261784v19.147643H262.68173V0H281.829373v928.261784z" fill="#F2F2F2" p-id="1702"></path><path d="M837.908843 909.114141v19.147643H281.829373V0h19.147643v909.114141z" fill="" p-id="1703"></path><path d="M837.908843 889.966498v19.147643H300.977016V0h19.147643v889.966498z" fill="#F2F2F2" p-id="1704"></path><path d="M837.908843 870.818855v19.147643H320.124659V0h19.147643v870.818855z" fill="" p-id="1705"></path><path d="M837.908843 851.671212v19.147643h-498.636541V0h19.147643v851.671212z" fill="#F2F2F2" p-id="1706"></path><path d="M837.908843 832.523568v19.147644H358.419945V0H377.567589v832.523568z" fill="" p-id="1707"></path><path d="M837.908843 813.375925v19.147643H377.567589V0h19.147643v813.375925z" fill="#F2F2F2" p-id="1708"></path><path d="M837.908843 775.080639v19.147643H415.862875V0h19.147643v775.080639z" fill="#F2F2F2" p-id="1709"></path><path d="M837.908843 794.228282v19.147643H396.715232V0h19.147643v794.228282z" fill="" p-id="1710"></path></svg>